<mxfile host="app.diagrams.net" modified="2022-01-21T23:23:22.309Z" agent="5.0 (X11; Linux x86_64) AppleWebKit/537.36 (KHTML, like Gecko) Chrome/97.0.4692.71 Safari/537.36" etag="7RhUlMOi4w0VdEv2_bcP" version="16.4.5" type="github">
  <diagram id="SUPEqTyxDLe5tAJqtJTT" name="Page-1">
    <mxGraphModel dx="331" dy="186" grid="1" gridSize="10" guides="1" tooltips="1" connect="1" arrows="1" fold="1" page="1" pageScale="1" pageWidth="850" pageHeight="1100" math="0" shadow="0">
      <root>
        <mxCell id="0" />
        <mxCell id="1" parent="0" />
        <mxCell id="2VigvtSNBfCB1EKhEpfF-1" value="inicio" style="ellipse;whiteSpace=wrap;html=1;" vertex="1" parent="1">
          <mxGeometry x="340" y="120" width="120" height="80" as="geometry" />
        </mxCell>
        <mxCell id="2VigvtSNBfCB1EKhEpfF-2" value="a,b" style="shape=parallelogram;perimeter=parallelogramPerimeter;whiteSpace=wrap;html=1;fixedSize=1;" vertex="1" parent="1">
          <mxGeometry x="340" y="250" width="120" height="60" as="geometry" />
        </mxCell>
        <mxCell id="2VigvtSNBfCB1EKhEpfF-3" value="a2=b2" style="rounded=0;whiteSpace=wrap;html=1;" vertex="1" parent="1">
          <mxGeometry x="340" y="350" width="120" height="60" as="geometry" />
        </mxCell>
        <mxCell id="2VigvtSNBfCB1EKhEpfF-4" value="a+b" style="rounded=0;whiteSpace=wrap;html=1;" vertex="1" parent="1">
          <mxGeometry x="340" y="450" width="120" height="60" as="geometry" />
        </mxCell>
        <mxCell id="2VigvtSNBfCB1EKhEpfF-12" style="edgeStyle=orthogonalEdgeStyle;rounded=0;orthogonalLoop=1;jettySize=auto;html=1;" edge="1" parent="1" source="2VigvtSNBfCB1EKhEpfF-5">
          <mxGeometry relative="1" as="geometry">
            <mxPoint x="400" y="540" as="targetPoint" />
            <Array as="points">
              <mxPoint x="400" y="510" />
              <mxPoint x="400" y="510" />
            </Array>
          </mxGeometry>
        </mxCell>
        <mxCell id="2VigvtSNBfCB1EKhEpfF-5" value="h=&lt;span style=&quot;color: rgb(32 , 33 , 36) ; font-family: &amp;#34;arial&amp;#34; , sans-serif ; font-size: 16px ; text-align: left ; background-color: rgb(255 , 255 , 255)&quot;&gt;âˆša2=b2&lt;/span&gt;&lt;br&gt;" style="rounded=0;whiteSpace=wrap;html=1;" vertex="1" parent="1">
          <mxGeometry x="340" y="540" width="120" height="60" as="geometry" />
        </mxCell>
        <mxCell id="2VigvtSNBfCB1EKhEpfF-6" value="h" style="rounded=0;whiteSpace=wrap;html=1;" vertex="1" parent="1">
          <mxGeometry x="340" y="630" width="120" height="60" as="geometry" />
        </mxCell>
        <mxCell id="2VigvtSNBfCB1EKhEpfF-7" value="fin" style="ellipse;whiteSpace=wrap;html=1;" vertex="1" parent="1">
          <mxGeometry x="340" y="710" width="120" height="80" as="geometry" />
        </mxCell>
        <mxCell id="2VigvtSNBfCB1EKhEpfF-8" value="" style="endArrow=classic;html=1;rounded=0;entryX=0.495;entryY=-0.047;entryDx=0;entryDy=0;entryPerimeter=0;" edge="1" parent="1" target="2VigvtSNBfCB1EKhEpfF-2">
          <mxGeometry width="50" height="50" relative="1" as="geometry">
            <mxPoint x="399.8" y="200" as="sourcePoint" />
            <mxPoint x="400" y="240" as="targetPoint" />
            <Array as="points">
              <mxPoint x="399.8" y="240" />
              <mxPoint x="400" y="230" />
            </Array>
          </mxGeometry>
        </mxCell>
        <mxCell id="2VigvtSNBfCB1EKhEpfF-9" value="" style="endArrow=classic;html=1;rounded=0;entryX=0.495;entryY=-0.047;entryDx=0;entryDy=0;entryPerimeter=0;" edge="1" parent="1">
          <mxGeometry width="50" height="50" relative="1" as="geometry">
            <mxPoint x="400" y="310" as="sourcePoint" />
            <mxPoint x="399.70000000000005" y="350.00000000000006" as="targetPoint" />
            <Array as="points">
              <mxPoint x="400.1000000000001" y="342.82" />
              <mxPoint x="400.30000000000007" y="332.82" />
            </Array>
          </mxGeometry>
        </mxCell>
        <mxCell id="2VigvtSNBfCB1EKhEpfF-10" value="" style="endArrow=classic;html=1;rounded=0;entryX=0.495;entryY=-0.047;entryDx=0;entryDy=0;entryPerimeter=0;" edge="1" parent="1">
          <mxGeometry width="50" height="50" relative="1" as="geometry">
            <mxPoint x="400" y="410" as="sourcePoint" />
            <mxPoint x="399.70000000000005" y="450" as="targetPoint" />
            <Array as="points">
              <mxPoint x="400.1000000000001" y="442.82" />
              <mxPoint x="400.30000000000007" y="432.82" />
            </Array>
          </mxGeometry>
        </mxCell>
        <mxCell id="2VigvtSNBfCB1EKhEpfF-13" value="" style="endArrow=classic;html=1;rounded=0;entryX=0.495;entryY=-0.047;entryDx=0;entryDy=0;entryPerimeter=0;" edge="1" parent="1">
          <mxGeometry width="50" height="50" relative="1" as="geometry">
            <mxPoint x="400" y="600" as="sourcePoint" />
            <mxPoint x="399.70000000000005" y="630" as="targetPoint" />
            <Array as="points">
              <mxPoint x="400.1000000000001" y="622.8199999999999" />
              <mxPoint x="400.30000000000007" y="612.8199999999999" />
            </Array>
          </mxGeometry>
        </mxCell>
        <mxCell id="2VigvtSNBfCB1EKhEpfF-14" value="" style="endArrow=classic;html=1;rounded=0;entryX=0.495;entryY=-0.047;entryDx=0;entryDy=0;entryPerimeter=0;exitX=0.5;exitY=1;exitDx=0;exitDy=0;" edge="1" parent="1" source="2VigvtSNBfCB1EKhEpfF-6">
          <mxGeometry width="50" height="50" relative="1" as="geometry">
            <mxPoint x="400" y="693" as="sourcePoint" />
            <mxPoint x="399.70000000000005" y="710" as="targetPoint" />
            <Array as="points">
              <mxPoint x="400.1000000000001" y="702.8199999999999" />
            </Array>
          </mxGeometry>
        </mxCell>
      </root>
    </mxGraphModel>
  </diagram>
</mxfile>
